# xmcd
#
# Track frame offsets:
#	150
#	14483
#	28174
#	44215
#	68267
#	83015
#	100115
#	121143
#	133742
#
# Disc length: 1974 seconds
#
# Revision: 0
# Processed by: cddbd v1.4PL0 Copyright (c) Steve Scherf et al.
# Submitted via: dBpowerAMP V4.0
#
DISCID=7107b409
DTITLE=Golden Rough - Slippery Slope
DYEAR=2003
DGENRE=Alternative
TTITLE0=Slippery Slope
TTITLE1=Steering Wheel
TTITLE2=After All
TTITLE3=Diamond Sutra
TTITLE4=Left on the Starting Line
TTITLE5=People in the Street (live)
TTITLE6=April Wind (live)
TTITLE7=99% (accoustic)
TTITLE8=She Don't Care About Time
EXTD=JM 7/03
EXTT0=
EXTT1=
EXTT2=
EXTT3=
EXTT4=
EXTT5=
EXTT6=
EXTT7=
EXTT8=
PLAYORDER=
